<?xml version="1.0" encoding="UTF-8" standalone="no"?>
<!DOCTYPE svg PUBLIC "-//W3C//DTD SVG 1.1//EN"
 "http://www.w3.org/Graphics/SVG/1.1/DTD/svg11.dtd">
<!-- Generated by graphviz version 2.43.0 (0)
 -->
<!-- Title: _379 Pages: 1 -->
<svg width="1349pt" height="1714pt"
 viewBox="0.00 0.00 1349.00 1714.00" xmlns="http://www.w3.org/2000/svg" xmlns:xlink="http://www.w3.org/1999/xlink">
<g id="graph0" class="graph" transform="scale(1 1) rotate(0) translate(4 1710)">
<title>_379</title>
<polygon fill="white" stroke="transparent" points="-4,4 -4,-1710 1345,-1710 1345,4 -4,4"/>
<g id="clust1" class="cluster">
<title>cluster379diagram</title>
<polygon fill="none" stroke="black" points="8,-8 8,-1698 1333,-1698 1333,-8 8,-8"/>
<text text-anchor="start" x="636.5" y="-1679.8" font-family="Times,serif" font-weight="bold" font-size="14.00">Diagram</text>
<text text-anchor="start" x="591.5" y="-1665.8" font-family="Times,serif" font-size="14.00">name=pick_and_place</text>
</g>
<g id="clust2" class="cluster">
<title>cluster379subsystems</title>
<polygon fill="none" stroke="white" points="16,-16 16,-1646 1325,-1646 1325,-16 16,-16"/>
</g>
<!-- s291 -->
<g id="node1" class="node">
<title>s291</title>
<polygon fill="none" stroke="black" points="244,-1518 244,-1552 800,-1552 800,-1518 244,-1518"/>
<text text-anchor="start" x="464.5" y="-1538.8" font-family="Times,serif" font-weight="bold" font-size="14.00">RobotDiagram</text>
<text text-anchor="start" x="471.5" y="-1524.8" font-family="Times,serif" font-size="14.00">name=station</text>
<polygon fill="none" stroke="black" points="244,-1497 244,-1518 436,-1518 436,-1497 244,-1497"/>
<text text-anchor="start" x="294.5" y="-1503.8" font-family="Times,serif" font-size="14.00">iiwa.position</text>
<polygon fill="none" stroke="black" points="436,-1497 436,-1518 800,-1518 800,-1497 436,-1497"/>
<text text-anchor="start" x="567.5" y="-1503.8" font-family="Times,serif" font-size="14.00">iiwa.actuation</text>
<polygon fill="none" stroke="black" points="244,-1476 244,-1497 436,-1497 436,-1476 244,-1476"/>
<text text-anchor="start" x="294.5" y="-1482.8" font-family="Times,serif" font-size="14.00">wsg.position</text>
<polygon fill="none" stroke="black" points="436,-1476 436,-1497 800,-1497 800,-1476 436,-1476"/>
<text text-anchor="start" x="526" y="-1482.8" font-family="Times,serif" font-size="14.00">iiwa.position_commanded</text>
<polygon fill="none" stroke="black" points="244,-1455 244,-1476 436,-1476 436,-1455 244,-1455"/>
<text text-anchor="start" x="285.5" y="-1461.8" font-family="Times,serif" font-size="14.00">wsg.force_limit</text>
<polygon fill="none" stroke="black" points="436,-1455 436,-1476 800,-1476 800,-1455 436,-1455"/>
<text text-anchor="start" x="533.5" y="-1461.8" font-family="Times,serif" font-size="14.00">iiwa.position_measured</text>
<polygon fill="none" stroke="black" points="244,-1434 244,-1455 436,-1455 436,-1434 244,-1434"/>
<text text-anchor="start" x="247" y="-1440.8" font-family="Times,serif" font-size="14.00">applied_generalized_force</text>
<polygon fill="none" stroke="black" points="436,-1434 436,-1455 800,-1455 800,-1434 436,-1434"/>
<text text-anchor="start" x="534" y="-1440.8" font-family="Times,serif" font-size="14.00">iiwa.velocity_estimated</text>
<polygon fill="none" stroke="black" points="244,-1413 244,-1434 436,-1434 436,-1413 244,-1413"/>
<text text-anchor="start" x="264.5" y="-1419.8" font-family="Times,serif" font-size="14.00">applied_spatial_force</text>
<polygon fill="none" stroke="black" points="436,-1413 436,-1434 800,-1434 800,-1413 436,-1413"/>
<text text-anchor="start" x="544" y="-1419.8" font-family="Times,serif" font-size="14.00">iiwa.state_estimated</text>
<polyline fill="none" stroke="grey" points="244,-1413 244,-27 436,-27 "/>
<polygon fill="none" stroke="black" points="436,-1392 436,-1413 800,-1413 800,-1392 436,-1392"/>
<text text-anchor="start" x="530.5" y="-1398.8" font-family="Times,serif" font-size="14.00">iiwa.torque_commanded</text>
<polygon fill="none" stroke="black" points="436,-1371 436,-1392 800,-1392 800,-1371 436,-1371"/>
<text text-anchor="start" x="538.5" y="-1377.8" font-family="Times,serif" font-size="14.00">iiwa.torque_measured</text>
<polygon fill="none" stroke="black" points="436,-1350 436,-1371 800,-1371 800,-1350 436,-1350"/>
<text text-anchor="start" x="544" y="-1356.8" font-family="Times,serif" font-size="14.00">iiwa.torque_external</text>
<polygon fill="none" stroke="black" points="436,-1329 436,-1350 800,-1350 800,-1329 436,-1329"/>
<text text-anchor="start" x="544.5" y="-1335.8" font-family="Times,serif" font-size="14.00">wsg.state_measured</text>
<polygon fill="none" stroke="black" points="436,-1308 436,-1329 800,-1329 800,-1308 436,-1308"/>
<text text-anchor="start" x="544.5" y="-1314.8" font-family="Times,serif" font-size="14.00">wsg.force_measured</text>
<polygon fill="none" stroke="black" points="436,-1287 436,-1308 800,-1308 800,-1287 436,-1287"/>
<text text-anchor="start" x="563.5" y="-1293.8" font-family="Times,serif" font-size="14.00">geometry_pose</text>
<polygon fill="none" stroke="black" points="436,-1266 436,-1287 800,-1287 800,-1266 436,-1266"/>
<text text-anchor="start" x="506" y="-1272.8" font-family="Times,serif" font-size="14.00">deformable_body_configuration</text>
<polygon fill="none" stroke="black" points="436,-1245 436,-1266 800,-1266 800,-1245 436,-1245"/>
<text text-anchor="start" x="599.5" y="-1251.8" font-family="Times,serif" font-size="14.00">state</text>
<polygon fill="none" stroke="black" points="436,-1224 436,-1245 800,-1245 800,-1224 436,-1224"/>
<text text-anchor="start" x="577" y="-1230.8" font-family="Times,serif" font-size="14.00">body_poses</text>
<polygon fill="none" stroke="black" points="436,-1203 436,-1224 800,-1224 800,-1203 436,-1203"/>
<text text-anchor="start" x="536" y="-1209.8" font-family="Times,serif" font-size="14.00">body_spatial_velocities</text>
<polygon fill="none" stroke="black" points="436,-1182 436,-1203 800,-1203 800,-1182 436,-1182"/>
<text text-anchor="start" x="556.5" y="-1188.8" font-family="Times,serif" font-size="14.00">spatial_velocities</text>
<polygon fill="none" stroke="black" points="436,-1161 436,-1182 800,-1182 800,-1161 436,-1161"/>
<text text-anchor="start" x="522.5" y="-1167.8" font-family="Times,serif" font-size="14.00">body_spatial_accelerations</text>
<polygon fill="none" stroke="black" points="436,-1140 436,-1161 800,-1161 800,-1140 436,-1140"/>
<text text-anchor="start" x="543" y="-1146.8" font-family="Times,serif" font-size="14.00">spatial_accelerations</text>
<polygon fill="none" stroke="black" points="436,-1119 436,-1140 800,-1140 800,-1119 436,-1119"/>
<text text-anchor="start" x="529" y="-1125.8" font-family="Times,serif" font-size="14.00">generalized_acceleration</text>
<polygon fill="none" stroke="black" points="436,-1098 436,-1119 800,-1119 800,-1098 436,-1098"/>
<text text-anchor="start" x="569.5" y="-1104.8" font-family="Times,serif" font-size="14.00">net_actuation</text>
<polygon fill="none" stroke="black" points="436,-1077 436,-1098 800,-1098 800,-1077 436,-1077"/>
<text text-anchor="start" x="563.5" y="-1083.8" font-family="Times,serif" font-size="14.00">reaction_forces</text>
<polygon fill="none" stroke="black" points="436,-1056 436,-1077 800,-1077 800,-1056 436,-1056"/>
<text text-anchor="start" x="563.5" y="-1062.8" font-family="Times,serif" font-size="14.00">contact_results</text>
<polygon fill="none" stroke="black" points="436,-1035 436,-1056 800,-1056 800,-1035 436,-1035"/>
<text text-anchor="start" x="523" y="-1041.8" font-family="Times,serif" font-size="14.00" fill="grey">WorldModelInstance_state</text>
<polygon fill="none" stroke="black" points="436,-1014 436,-1035 800,-1035 800,-1014 436,-1014"/>
<text text-anchor="start" x="452.5" y="-1020.8" font-family="Times,serif" font-size="14.00" fill="grey">WorldModelInstance_generalized_acceleration</text>
<polygon fill="none" stroke="black" points="436,-993 436,-1014 800,-1014 800,-993 436,-993"/>
<text text-anchor="start" x="444.5" y="-999.8" font-family="Times,serif" font-size="14.00" fill="grey">WorldModelInstance_generalized_contact_forces</text>
<polygon fill="none" stroke="black" points="436,-972 436,-993 800,-993 800,-972 436,-972"/>
<text text-anchor="start" x="492.5" y="-978.8" font-family="Times,serif" font-size="14.00" fill="grey">WorldModelInstance_net_actuation</text>
<polygon fill="none" stroke="black" points="436,-951 436,-972 800,-972 800,-951 436,-951"/>
<text text-anchor="start" x="517.5" y="-957.8" font-family="Times,serif" font-size="14.00" fill="grey">DefaultModelInstance_state</text>
<polygon fill="none" stroke="black" points="436,-930 436,-951 800,-951 800,-930 436,-930"/>
<text text-anchor="start" x="447" y="-936.8" font-family="Times,serif" font-size="14.00" fill="grey">DefaultModelInstance_generalized_acceleration</text>
<polygon fill="none" stroke="black" points="436,-909 436,-930 800,-930 800,-909 436,-909"/>
<text text-anchor="start" x="439" y="-915.8" font-family="Times,serif" font-size="14.00" fill="grey">DefaultModelInstance_generalized_contact_forces</text>
<polygon fill="none" stroke="black" points="436,-888 436,-909 800,-909 800,-888 436,-888"/>
<text text-anchor="start" x="487" y="-894.8" font-family="Times,serif" font-size="14.00" fill="grey">DefaultModelInstance_net_actuation</text>
<polygon fill="none" stroke="black" points="436,-867 436,-888 800,-888 800,-867 436,-867"/>
<text text-anchor="start" x="564" y="-873.8" font-family="Times,serif" font-size="14.00" fill="grey">conveyor_state</text>
<polygon fill="none" stroke="black" points="436,-846 436,-867 800,-867 800,-846 436,-846"/>
<text text-anchor="start" x="493.5" y="-852.8" font-family="Times,serif" font-size="14.00" fill="grey">conveyor_generalized_acceleration</text>
<polygon fill="none" stroke="black" points="436,-825 436,-846 800,-846 800,-825 436,-825"/>
<text text-anchor="start" x="485.5" y="-831.8" font-family="Times,serif" font-size="14.00" fill="grey">conveyor_generalized_contact_forces</text>
<polygon fill="none" stroke="black" points="436,-804 436,-825 800,-825 800,-804 436,-804"/>
<text text-anchor="start" x="533.5" y="-810.8" font-family="Times,serif" font-size="14.00" fill="grey">conveyor_net_actuation</text>
<polygon fill="none" stroke="black" points="436,-783 436,-804 800,-804 800,-783 436,-783"/>
<text text-anchor="start" x="578.5" y="-789.8" font-family="Times,serif" font-size="14.00" fill="grey">table_state</text>
<polygon fill="none" stroke="black" points="436,-762 436,-783 800,-783 800,-762 436,-762"/>
<text text-anchor="start" x="508" y="-768.8" font-family="Times,serif" font-size="14.00" fill="grey">table_generalized_acceleration</text>
<polygon fill="none" stroke="black" points="436,-741 436,-762 800,-762 800,-741 436,-741"/>
<text text-anchor="start" x="500" y="-747.8" font-family="Times,serif" font-size="14.00" fill="grey">table_generalized_contact_forces</text>
<polygon fill="none" stroke="black" points="436,-720 436,-741 800,-741 800,-720 436,-720"/>
<text text-anchor="start" x="548" y="-726.8" font-family="Times,serif" font-size="14.00" fill="grey">table_net_actuation</text>
<polygon fill="none" stroke="black" points="436,-699 436,-720 800,-720 800,-699 436,-699"/>
<text text-anchor="start" x="542.5" y="-705.8" font-family="Times,serif" font-size="14.00" fill="grey">sensor_emitter_state</text>
<polygon fill="none" stroke="black" points="436,-678 436,-699 800,-699 800,-678 436,-678"/>
<text text-anchor="start" x="472" y="-684.8" font-family="Times,serif" font-size="14.00" fill="grey">sensor_emitter_generalized_acceleration</text>
<polygon fill="none" stroke="black" points="436,-657 436,-678 800,-678 800,-657 436,-657"/>
<text text-anchor="start" x="464.5" y="-663.8" font-family="Times,serif" font-size="14.00" fill="grey">sensor_emitter_generalized_contact_forces</text>
<polygon fill="none" stroke="black" points="436,-636 436,-657 800,-657 800,-636 436,-636"/>
<text text-anchor="start" x="512.5" y="-642.8" font-family="Times,serif" font-size="14.00" fill="grey">sensor_emitter_net_actuation</text>
<polygon fill="none" stroke="black" points="436,-615 436,-636 800,-636 800,-615 436,-615"/>
<text text-anchor="start" x="540" y="-621.8" font-family="Times,serif" font-size="14.00" fill="grey">sensor_receiver_state</text>
<polygon fill="none" stroke="black" points="436,-594 436,-615 800,-615 800,-594 436,-594"/>
<text text-anchor="start" x="469.5" y="-600.8" font-family="Times,serif" font-size="14.00" fill="grey">sensor_receiver_generalized_acceleration</text>
<polygon fill="none" stroke="black" points="436,-573 436,-594 800,-594 800,-573 436,-573"/>
<text text-anchor="start" x="461.5" y="-579.8" font-family="Times,serif" font-size="14.00" fill="grey">sensor_receiver_generalized_contact_forces</text>
<polygon fill="none" stroke="black" points="436,-552 436,-573 800,-573 800,-552 436,-552"/>
<text text-anchor="start" x="509.5" y="-558.8" font-family="Times,serif" font-size="14.00" fill="grey">sensor_receiver_net_actuation</text>
<polygon fill="none" stroke="black" points="436,-531 436,-552 800,-552 800,-531 436,-531"/>
<text text-anchor="start" x="568" y="-537.8" font-family="Times,serif" font-size="14.00" fill="grey">basket1_state</text>
<polygon fill="none" stroke="black" points="436,-510 436,-531 800,-531 800,-510 436,-510"/>
<text text-anchor="start" x="497.5" y="-516.8" font-family="Times,serif" font-size="14.00" fill="grey">basket1_generalized_acceleration</text>
<polygon fill="none" stroke="black" points="436,-489 436,-510 800,-510 800,-489 436,-489"/>
<text text-anchor="start" x="490" y="-495.8" font-family="Times,serif" font-size="14.00" fill="grey">basket1_generalized_contact_forces</text>
<polygon fill="none" stroke="black" points="436,-468 436,-489 800,-489 800,-468 436,-468"/>
<text text-anchor="start" x="538" y="-474.8" font-family="Times,serif" font-size="14.00" fill="grey">basket1_net_actuation</text>
<polygon fill="none" stroke="black" points="436,-447 436,-468 800,-468 800,-447 436,-447"/>
<text text-anchor="start" x="568" y="-453.8" font-family="Times,serif" font-size="14.00" fill="grey">basket2_state</text>
<polygon fill="none" stroke="black" points="436,-426 436,-447 800,-447 800,-426 436,-426"/>
<text text-anchor="start" x="497.5" y="-432.8" font-family="Times,serif" font-size="14.00" fill="grey">basket2_generalized_acceleration</text>
<polygon fill="none" stroke="black" points="436,-405 436,-426 800,-426 800,-405 436,-405"/>
<text text-anchor="start" x="490" y="-411.8" font-family="Times,serif" font-size="14.00" fill="grey">basket2_generalized_contact_forces</text>
<polygon fill="none" stroke="black" points="436,-384 436,-405 800,-405 800,-384 436,-384"/>
<text text-anchor="start" x="538" y="-390.8" font-family="Times,serif" font-size="14.00" fill="grey">basket2_net_actuation</text>
<polygon fill="none" stroke="black" points="436,-363 436,-384 800,-384 800,-363 436,-363"/>
<text text-anchor="start" x="568" y="-369.8" font-family="Times,serif" font-size="14.00" fill="grey">basket3_state</text>
<polygon fill="none" stroke="black" points="436,-342 436,-363 800,-363 800,-342 436,-342"/>
<text text-anchor="start" x="497.5" y="-348.8" font-family="Times,serif" font-size="14.00" fill="grey">basket3_generalized_acceleration</text>
<polygon fill="none" stroke="black" points="436,-321 436,-342 800,-342 800,-321 436,-321"/>
<text text-anchor="start" x="490" y="-327.8" font-family="Times,serif" font-size="14.00" fill="grey">basket3_generalized_contact_forces</text>
<polygon fill="none" stroke="black" points="436,-300 436,-321 800,-321 800,-300 436,-300"/>
<text text-anchor="start" x="538" y="-306.8" font-family="Times,serif" font-size="14.00" fill="grey">basket3_net_actuation</text>
<polygon fill="none" stroke="black" points="436,-279 436,-300 800,-300 800,-279 436,-279"/>
<text text-anchor="start" x="581.5" y="-285.8" font-family="Times,serif" font-size="14.00">iiwa_state</text>
<polygon fill="none" stroke="black" points="436,-258 436,-279 800,-279 800,-258 436,-258"/>
<text text-anchor="start" x="511" y="-264.8" font-family="Times,serif" font-size="14.00">iiwa_generalized_acceleration</text>
<polygon fill="none" stroke="black" points="436,-237 436,-258 800,-258 800,-237 436,-237"/>
<text text-anchor="start" x="503.5" y="-243.8" font-family="Times,serif" font-size="14.00">iiwa_generalized_contact_forces</text>
<polygon fill="none" stroke="black" points="436,-216 436,-237 800,-237 800,-216 436,-216"/>
<text text-anchor="start" x="551.5" y="-222.8" font-family="Times,serif" font-size="14.00">iiwa_net_actuation</text>
<polygon fill="none" stroke="black" points="436,-195 436,-216 800,-216 800,-195 436,-195"/>
<text text-anchor="start" x="582" y="-201.8" font-family="Times,serif" font-size="14.00">wsg_state</text>
<polygon fill="none" stroke="black" points="436,-174 436,-195 800,-195 800,-174 436,-174"/>
<text text-anchor="start" x="511.5" y="-180.8" font-family="Times,serif" font-size="14.00">wsg_generalized_acceleration</text>
<polygon fill="none" stroke="black" points="436,-153 436,-174 800,-174 800,-153 436,-153"/>
<text text-anchor="start" x="503.5" y="-159.8" font-family="Times,serif" font-size="14.00">wsg_generalized_contact_forces</text>
<polygon fill="none" stroke="black" points="436,-132 436,-153 800,-153 800,-132 436,-132"/>
<text text-anchor="start" x="551.5" y="-138.8" font-family="Times,serif" font-size="14.00">wsg_net_actuation</text>
<polygon fill="none" stroke="black" points="436,-111 436,-132 800,-132 800,-111 436,-111"/>
<text text-anchor="start" x="578.5" y="-117.8" font-family="Times,serif" font-size="14.00">brick_state</text>
<polygon fill="none" stroke="black" points="436,-90 436,-111 800,-111 800,-90 436,-90"/>
<text text-anchor="start" x="508" y="-96.8" font-family="Times,serif" font-size="14.00">brick_generalized_acceleration</text>
<polygon fill="none" stroke="black" points="436,-69 436,-90 800,-90 800,-69 436,-69"/>
<text text-anchor="start" x="500" y="-75.8" font-family="Times,serif" font-size="14.00">brick_generalized_contact_forces</text>
<polygon fill="none" stroke="black" points="436,-48 436,-69 800,-69 800,-48 436,-48"/>
<text text-anchor="start" x="548" y="-54.8" font-family="Times,serif" font-size="14.00" fill="grey">brick_net_actuation</text>
<polygon fill="none" stroke="black" points="436,-27 436,-48 800,-48 800,-27 436,-27"/>
<text text-anchor="start" x="572" y="-33.8" font-family="Times,serif" font-size="14.00">query_object</text>
</g>
<!-- s370 -->
<g id="node3" class="node">
<title>s370</title>
<polygon fill="none" stroke="black" points="852.5,-1573 852.5,-1607 1127.5,-1607 1127.5,-1573 852.5,-1573"/>
<text text-anchor="start" x="855.5" y="-1593.8" font-family="Times,serif" font-weight="bold" font-size="14.00">__main__.PseudoInverseController</text>
<text text-anchor="start" x="875.5" y="-1579.8" font-family="Times,serif" font-size="14.00">name=PseudoInverseController</text>
<polygon fill="none" stroke="black" points="852.5,-1552 852.5,-1573 990.5,-1573 990.5,-1552 852.5,-1552"/>
<text text-anchor="start" x="900" y="-1558.8" font-family="Times,serif" font-size="14.00">V_WG</text>
<polygon fill="none" stroke="black" points="990.5,-1531 990.5,-1573 1127.5,-1573 1127.5,-1531 990.5,-1531"/>
<text text-anchor="start" x="1014" y="-1548.3" font-family="Times,serif" font-size="14.00">iiwa.velocity</text>
<polygon fill="none" stroke="black" points="852.5,-1531 852.5,-1552 990.5,-1552 990.5,-1531 852.5,-1531"/>
<text text-anchor="start" x="876" y="-1537.8" font-family="Times,serif" font-size="14.00">iiwa.position</text>
</g>
<!-- s291&#45;&gt;s370 -->
<g id="edge2" class="edge">
<title>s291:e&#45;&gt;s370:w</title>
<path fill="none" stroke="black" d="M801,-1466C837.26,-1466 816.48,-1527.07 841.6,-1538.99"/>
<polygon fill="black" stroke="black" points="841,-1542.44 851.5,-1541 842.39,-1535.58 841,-1542.44"/>
</g>
<!-- s369 -->
<g id="node2" class="node">
<title>s369</title>
<polygon fill="none" stroke="black" points="452,-1599 452,-1633 593,-1633 593,-1599 452,-1599"/>
<text text-anchor="start" x="455" y="-1619.8" font-family="Times,serif" font-weight="bold" font-size="14.00">TrajectorySource</text>
<text text-anchor="start" x="476.5" y="-1605.8" font-family="Times,serif" font-size="14.00">name=v_WG</text>
<polyline fill="none" stroke="grey" points="452,-1599 452,-1578 513,-1578 "/>
<polygon fill="none" stroke="black" points="513,-1578 513,-1599 593,-1599 593,-1578 513,-1578"/>
<text text-anchor="start" x="544" y="-1584.8" font-family="Times,serif" font-size="14.00">y0</text>
</g>
<!-- s369&#45;&gt;s370 -->
<g id="edge1" class="edge">
<title>s369:e&#45;&gt;s370:w</title>
<path fill="none" stroke="black" d="M594,-1588C600.4,-1588 793.95,-1567.38 841.29,-1562.87"/>
<polygon fill="black" stroke="black" points="841.83,-1566.33 851.5,-1562 841.24,-1559.36 841.83,-1566.33"/>
</g>
<!-- s371 -->
<g id="node4" class="node">
<title>s371</title>
<polygon fill="none" stroke="black" points="1179,-1541 1179,-1575 1309,-1575 1309,-1541 1179,-1541"/>
<text text-anchor="start" x="1202.5" y="-1561.8" font-family="Times,serif" font-weight="bold" font-size="14.00">Integrator</text>
<text text-anchor="start" x="1182" y="-1547.8" font-family="Times,serif" font-size="14.00">name=integrator</text>
<polygon fill="none" stroke="black" points="1179,-1520 1179,-1541 1244,-1541 1244,-1520 1179,-1520"/>
<text text-anchor="start" x="1202" y="-1526.8" font-family="Times,serif" font-size="14.00">u0</text>
<polygon fill="none" stroke="black" points="1244,-1520 1244,-1541 1309,-1541 1309,-1520 1244,-1520"/>
<text text-anchor="start" x="1267.5" y="-1526.8" font-family="Times,serif" font-size="14.00">y0</text>
</g>
<!-- s370&#45;&gt;s371 -->
<g id="edge3" class="edge">
<title>s370:e&#45;&gt;s371:w</title>
<path fill="none" stroke="black" d="M1128.5,-1552C1148.63,-1552 1152.87,-1536.63 1167.78,-1531.58"/>
<polygon fill="black" stroke="black" points="1168.65,-1534.99 1178,-1530 1167.58,-1528.07 1168.65,-1534.99"/>
</g>
<!-- s371&#45;&gt;s291 -->
<g id="edge4" class="edge">
<title>s371:e&#45;&gt;s291:w</title>
<path fill="none" stroke="black" d="M1310,-1530C1316.02,-1530 1313.41,-1520.59 1309,-1516.5 1264.06,-1474.76 1232.33,-1516.36 1171,-1516.5 1025.67,-1516.83 977.19,-1459.83 844,-1518 822.53,-1527.38 829.49,-1547.17 808,-1556.5 793.63,-1562.74 255.19,-1567.46 244,-1556.5 231.61,-1544.36 224.55,-1520.35 233.5,-1511.44"/>
<polygon fill="black" stroke="black" points="234.79,-1514.69 243,-1508 232.41,-1508.11 234.79,-1514.69"/>
</g>
<!-- s372 -->
<g id="node5" class="node">
<title>s372</title>
<polygon fill="none" stroke="black" points="32,-1498 32,-1532 192,-1532 192,-1498 32,-1498"/>
<text text-anchor="start" x="44.5" y="-1518.8" font-family="Times,serif" font-weight="bold" font-size="14.00">TrajectorySource</text>
<text text-anchor="start" x="35" y="-1504.8" font-family="Times,serif" font-size="14.00">name=wsg.command</text>
<polyline fill="none" stroke="grey" points="32,-1498 32,-1477 103,-1477 "/>
<polygon fill="none" stroke="black" points="103,-1477 103,-1498 192,-1498 192,-1477 103,-1477"/>
<text text-anchor="start" x="138.5" y="-1483.8" font-family="Times,serif" font-size="14.00">y0</text>
</g>
<!-- s372&#45;&gt;s291 -->
<g id="edge5" class="edge">
<title>s372:e&#45;&gt;s291:w</title>
<path fill="none" stroke="black" d="M193,-1487C211.4,-1487 218.38,-1487 232.85,-1487"/>
<polygon fill="black" stroke="black" points="233,-1490.5 243,-1487 233,-1483.5 233,-1490.5"/>
</g>
</g>
</svg>
